<svg xmlns="http://www.w3.org/2000/svg" xmlns:xlink="http://www.w3.org/1999/xlink" viewBox="0 0 1000 1000"><defs><style>.cls-1{fill:none;}.cls-2{clip-path:url(#clip-path);}.cls-3{fill:#3d5a98;}.cls-4{fill:#fff;}</style><clipPath id="clip-path"><rect class="cls-1" width="1000" height="1000" rx="150" ry="150"/></clipPath></defs><title>Zeichenfläche 1</title><g id="Ebene_1" data-name="Ebene 1"><g class="cls-2"><path id="Blue" class="cls-3" d="M954.57,1011A56.43,56.43,0,0,0,1011,954.57V45a56.42,56.42,0,0,0-56.42-56.43H45A56.42,56.42,0,0,0-11.45,45V954.57A56.43,56.43,0,0,0,45,1011Z"/><path id="f" class="cls-4" d="M694,1011V615.06h132.9l19.9-154.31H694V362.23c0-44.68,12.4-75.12,76.47-75.12l81.72,0v-138c-14.14-1.88-62.64-6.08-119.07-6.08-117.81,0-198.47,71.91-198.47,204v113.8H401.43V615.06H534.67V1011Z"/></g></g></svg>