<svg xmlns="http://www.w3.org/2000/svg" width="914.93" height="315.5" viewBox="0 0 914.93 315.5"><title>Element 32</title><g id="Ebene_2" data-name="Ebene 2"><g id="black"><path d="M801.61,142.5h90.76V272c-2.61,2.94-18.77,20.31-45.17,20.49s-43-17.19-45.59-20.06Z" style="fill:none;stroke:#000;stroke-linecap:round;stroke-linejoin:round;stroke-width:45.108014174631px"/><path d="M886.26,220.93c-4.21,19.81-18.61,67.23-39.88,67-24.12-.24-37.76-61.59-38.58-65.61-2.28-10.63-11.17-52.22,6.75-67,6.7-5.53,15.08-5.56,31.86-5.58,17.34,0,26.47,0,33.54,6.05C897,170.46,888.75,209.19,886.26,220.93Z" style="fill:none;stroke:#000;stroke-linecap:round;stroke-linejoin:round;stroke-width:45px"/><path d="M752,142.5v150" style="fill:none;stroke:#000;stroke-linecap:round;stroke-miterlimit:10;stroke-width:45px"/><path d="M701.79,22.5v270" style="fill:none;stroke:#000;stroke-linecap:round;stroke-miterlimit:10;stroke-width:45px"/><path d="M645.22,88.86C666.78,68.38,683.36,65,694.85,66c22.7,2,31.4,21.7,53.78,23.16,18.78,1.22,35.09-11.2,46.27-22.43" style="fill:none;stroke:#000;stroke-linecap:round;stroke-linejoin:round;stroke-width:40px"/><path d="M652.46,252.44v40.25" style="fill:none;stroke:#000;stroke-linecap:round;stroke-linejoin:round;stroke-width:45px"/><path d="M558.21,157.94s18.56-15.34,45.22-15.26,49,21.26,49,21.26v92.33c0-57.83-93.91-57-93.91.33v36" style="fill:none;stroke:#000;stroke-linecap:round;stroke-linejoin:round;stroke-width:45px"/><path d="M509.43,22.5v270" style="fill:none;stroke:#000;stroke-linecap:round;stroke-miterlimit:10;stroke-width:45px"/><path d="M459.47,22.5v270" style="fill:none;stroke:#000;stroke-linecap:round;stroke-miterlimit:10;stroke-width:45px"/><circle cx="409.59" cy="90.72" r="22.5"/><path d="M409.62,142.5v150" style="fill:none;stroke:#000;stroke-linecap:round;stroke-miterlimit:10;stroke-width:45px"/><path d="M93.2,142.5H349.46" style="fill:none;stroke:#000;stroke-linecap:round;stroke-miterlimit:10;stroke-width:45px"/><path d="M333.16,292.5l76.46.16" style="fill:none;stroke:#000;stroke-linecap:round;stroke-linejoin:round;stroke-width:45px"/><path d="M333.16,292.5a78.51,78.51,0,0,1,0-150.06l24.25.16v24.09" style="fill:none;stroke:#000;stroke-linecap:round;stroke-linejoin:round;stroke-width:45px"/><path d="M244.45,142.51H164c-2.43,2.95-14.14,17.79-11.93,38.63A51.83,51.83,0,0,0,164,208.81" style="fill:none;stroke:#000;stroke-linecap:round;stroke-linejoin:round;stroke-width:45px"/><path d="M164,208.81h0s23.28-15.38,39.19-15.38A49.79,49.79,0,1,1,164,273.91" style="fill:none;stroke:#000;stroke-linecap:round;stroke-linejoin:round;stroke-width:45px"/><path d="M22.55,142.5h90.77V272C110.7,275,94.54,292.32,68.14,292.5s-43-17.19-45.59-20.06Z" style="fill:none;stroke:#000;stroke-linecap:round;stroke-linejoin:round;stroke-width:45.108014174631px"/><path d="M107.2,220.93c-4.21,19.81-18.6,67.23-39.88,67-24.11-.24-37.75-61.59-38.58-65.61-2.27-10.63-11.17-52.22,6.75-67,6.71-5.53,15.08-5.56,31.86-5.58,17.35,0,26.48,0,33.55,6.05C117.93,170.46,109.69,209.19,107.2,220.93Z" style="fill:none;stroke:#000;stroke-linecap:round;stroke-linejoin:round;stroke-width:45px"/></g></g></svg>