<svg xmlns="http://www.w3.org/2000/svg" xmlns:xlink="http://www.w3.org/1999/xlink" viewBox="0 0 1000 1000"><defs><style>.cls-1{fill:none;}.cls-2{clip-path:url(#clip-path);}.cls-3{fill:#fff;stroke:#000;stroke-miterlimit:10;stroke-width:1px;}.cls-4{fill:url(#Unbenannter_Verlauf_2);}</style><clipPath id="clip-path"><rect class="cls-1" x="-0.5" y="0.5" width="1001" height="1001" rx="150" ry="150"/></clipPath><linearGradient id="Unbenannter_Verlauf_2" x1="-461.95" y1="42.53" x2="-461.95" y2="91.96" gradientTransform="translate(5415.17 -215.7) scale(10.64)" gradientUnits="userSpaceOnUse"><stop offset="0" stop-color="#f79810"/><stop offset="1" stop-color="#f8310e"/></linearGradient></defs><title>Zeichenfläche 1</title><g id="Ebene_2" data-name="Ebene 2"><g class="cls-2"><rect class="cls-3" x="-12" y="-13" width="1024" height="1024"/><path id="path2465" class="cls-4" d="M49.29,475.7a3.83,3.83,0,0,0-3.73,3.63L38.85,530.6l6.71,50.33a3.68,3.68,0,1,0,7.36.09h0l8-50.33-8-51.26C52.64,477.19,51.15,475.7,49.29,475.7Zm37.93-28.06a3.94,3.94,0,0,0-3.82-3.72,4,4,0,0,0-3.82,3.72l-9,82.86,9,81a3.82,3.82,0,0,0,7.64,0l10.35-81ZM230.1,371.31a7.16,7.16,0,0,0-7,6.9L215.94,530.6l7.17,98.51a7,7,0,0,0,14,0h0l8.21-98.51-8.21-152.39A7.14,7.14,0,0,0,230.1,371.31Zm-74,52.94a5.45,5.45,0,0,0-5.41,5.31l-8.1,100.94,8.1,97.68a5.51,5.51,0,0,0,5.41,5.31,5.59,5.59,0,0,0,5.41-5.31l9.22-97.68-9.22-101A5.43,5.43,0,0,0,156.1,424.25ZM305.23,635.92a8.72,8.72,0,0,0,8.57-8.48l7.09-96.84L313.8,327.69a8.58,8.58,0,0,0-17.15,0L290.41,530.6l6.24,96.84A8.66,8.66,0,0,0,305.23,635.92Zm153.88.46a11.91,11.91,0,0,0,11.74-11.65h0l4.94-94-4.94-234.32a11.75,11.75,0,0,0-23.49,0L443,530.6c0,.18,4.38,94.23,4.38,94.23a11.82,11.82,0,0,0,11.73,11.55ZM381.56,636a10.25,10.25,0,0,0,10.16-10.07v.1l6-95.35-6.06-204.4a10.16,10.16,0,0,0-20.32,0l-5.22,204.4L371.4,626A10.25,10.25,0,0,0,381.56,636ZM193,635.17a6.25,6.25,0,0,0,6.15-6.06l8.67-98.51-8.67-93.67a6.2,6.2,0,1,0-12.4.09h0l-7.64,93.67,7.64,98.52a6.26,6.26,0,0,0,6.25,6Zm-73.45-5.4a4.77,4.77,0,0,0,4.66-4.48L134,530.6l-9.79-98.33a4.84,4.84,0,0,0-4.66-4.57,4.78,4.78,0,0,0-4.66,4.57l-8.57,98.33,8.57,94.69A4.77,4.77,0,0,0,119.55,629.77Zm300.6-306.93a10.93,10.93,0,0,0-10.91,10.91L404.4,530.69l4.84,94.79a10.91,10.91,0,0,0,21.81.55c0-.21,0-.43,0-.65v.1l5.5-94.79-5.5-196.94A10.91,10.91,0,0,0,420.15,322.84ZM267.57,636.2a7.91,7.91,0,0,0,7.74-7.74L283,530.6l-7.64-187.25a8,8,0,0,0-7.74-7.74,7.78,7.78,0,0,0-7.73,7.74L253.13,530.6l6.71,97.86A7.84,7.84,0,0,0,267.57,636.2Zm85-9.23h0l6.53-96.28L352.57,321a9.47,9.47,0,0,0-9.32-9.32,9.32,9.32,0,0,0-9.32,9.32h0l-5.77,209.71L333.93,627a9.32,9.32,0,1,0,18.64,0Zm495.2-217.26a113,113,0,0,0-43.9,8.85c-9-102.24-94.79-182.49-199.36-182.49a203.93,203.93,0,0,0-72.61,13.52c-8.58,3.35-10.81,6.71-10.91,13.32V623a13.7,13.7,0,0,0,12.21,13.42l314.47.19a113.43,113.43,0,0,0,.1-226.86ZM497.88,262.63a12.62,12.62,0,0,0-12.49,12.49l-5.22,255.57,5.13,92.74a12.5,12.5,0,0,0,25-.1h0v.1l5.59-92.74L510.3,275.12A12.61,12.61,0,0,0,497.88,262.63ZM130.47,708.8c-13.42-3.17-17.06-4.84-17.06-10.16,0-3.73,3-7.64,12.12-7.64,7.74,0,13.79,3.17,19.2,8.67l12.21-11.84c-8-8.39-17.62-13.33-30.85-13.33-16.68,0-30.29,9.42-30.29,24.8,0,16.68,10.9,21.62,26.47,25.25,15.94,3.64,18.82,6.06,18.82,11.47,0,6.43-4.75,9.23-14.72,9.23-8.11,0-15.75-2.8-21.63-9.7l-12.2,10.91c6.43,9.41,18.73,15.38,32.9,15.38,23.11,0,33.27-10.91,33.27-26.94C158.71,716.54,143.89,712,130.47,708.8Zm77.92-34.2c-23.12,0-36.72,17.89-36.72,43.62s13.7,43.62,36.72,43.62,36.81-17.9,36.81-43.62-13.79-43.62-36.81-43.62Zm0,70.46c-13.7,0-19.39-11.74-19.39-26.84s5.69-26.85,19.39-26.85,19.38,11.75,19.38,26.85S222,745.06,208.39,745.06Zm105-21.62c0,13.51-6.71,21.9-17.43,21.9s-17.34-8.58-17.34-22.09V675.9h-17v47.54c0,24.69,13.79,38.49,34.21,38.49,21.53,0,34.39-14.17,34.39-38.68V675.9h-17v47.54Zm90-11.75c0,4.76.28,15.38.28,18.46-1.11-2.15-3.91-6.44-6-9.6l-30-44.74H351.55v84.63h16.68V723.16c0-4.76-.28-15.38-.28-18.46,1.12,2.15,3.92,6.43,6,9.6l31.13,46.23h15.1V675.9H403.46v35.79Zm65-35.79H442v84.63h25.26c21.81,0,43.34-12.58,43.34-42.31-.1-31-18-42.32-42.13-42.32Zm-1.31,68.23h-8.29V692.4h8.94c17.9,0,25.26,8.57,25.26,25.91,0,15.38-8.07,25.82-25.87,25.82Zm95.72-52.76c7.65,0,12.49,3.36,15.47,9.23L594,693.33c-5.32-11-15-18.73-31-18.73-22.09,0-37.56,17.89-37.56,43.62,0,26.75,14.91,43.62,37,43.62,15.38,0,25.54-7.18,31.32-19.11l-14.26-8.48c-4.47,7.55-9,10.81-16.59,10.81-12.68,0-20-11.65-20-26.84,0-15.66,7.23-26.85,19.9-26.85Zm62.82-15.47h-17v84.63h50.89V743.85H625.66v-68Zm78.57-1.3c-23.11,0-36.81,17.89-36.81,43.62s13.7,43.62,36.81,43.62S741,743.94,741,718.22s-13.61-43.62-36.73-43.62Zm0,70.46c-13.7,0-19.38-11.74-19.38-26.84s5.68-26.85,19.38-26.85,19.3,11.75,19.3,26.85S717.8,745.06,704.19,745.06Zm105-21.62c0,13.51-6.61,21.9-17.42,21.9s-17.34-8.58-17.34-22.09V675.9h-17v47.54c0,24.69,13.79,38.49,34.2,38.49,21.53,0,34.3-14.17,34.3-38.68V675.9h-17v47.54Zm64.59-47.54H847.39v84.63h25.26c21.81,0,43.34-12.58,43.34-42.31,0-31-17.89-42.32-42.13-42.32Zm-1.21,68.23h-8.39V692.4h9c17.9,0,25.26,8.57,25.26,25.91.12,15.38-8,25.82-25.79,25.82Z"/></g></g></svg>