<svg xmlns="http://www.w3.org/2000/svg" xmlns:xlink="http://www.w3.org/1999/xlink" viewBox="0 0 1000 1000"><defs><style>.cls-1{fill:none;}.cls-2{clip-path:url(#clip-path);}.cls-3{fill:#fffc00;}.cls-4{fill:#fff;}.cls-5{fill:#030303;}</style><clipPath id="clip-path"><rect class="cls-1" x="-0.5" y="0.5" width="1001" height="1001" rx="150" ry="150"/></clipPath></defs><title>Zeichenfläche 1</title><g id="Ebene_2" data-name="Ebene 2"><g class="cls-2"><path class="cls-3" d="M847.31-10A162.69,162.69,0,0,1,1010,152.7V848.31A162.7,162.7,0,0,1,847.31,1011H151.69A162.7,162.7,0,0,1-11,848.31V152.7A162.7,162.7,0,0,1,151.69-10Z"/><path class="cls-4" d="M503.25,851.52c-1.93,0-3.83,0-5.72-.14h0c-1.21.09-2.47.14-3.74.14-44.31,0-72.75-20.1-100.25-39.55-19-13.42-36.91-26.08-58-29.6a187.9,187.9,0,0,0-30.47-2.57c-17.85,0-31.94,2.76-42.22,4.77-6.25,1.22-11.64,2.27-15.74,2.27-4.28,0-8.92-.93-10.93-7.81-1.75-6-3-11.75-4.24-17.34-3.14-14.39-5.37-23.23-11.4-24.16-70.28-10.85-90.39-25.66-94.88-36.16a13.75,13.75,0,0,1-1.08-4.5,7.9,7.9,0,0,1,6.62-8.24c108-17.79,156.48-128.21,158.49-132.9.06-.13.12-.25.17-.38,6.62-13.4,7.91-25,3.87-34.57-7.42-17.47-31.6-25.15-47.6-30.23-3.92-1.24-7.63-2.41-10.56-3.57-31.94-12.62-34.6-25.58-33.34-32.19,2.14-11.25,17.18-19.1,29.34-19.1a20.48,20.48,0,0,1,8.75,1.75c14.36,6.73,27.31,10.14,38.48,10.14,15.44,0,22.18-6.49,23-7.34-.4-7.31-.88-14.95-1.38-22.83-3.22-51.08-7.21-114.54,8.95-150.77,48.43-108.59,151.14-117,181.46-117l13.29-.14h1.8c30.39,0,133.32,8.46,181.78,117.11,16.16,36.24,12.16,99.76,8.94,150.8l-.13,2.22c-.45,7.11-.88,14-1.24,20.63.77.79,7,6.75,21,7.29h0c10.63-.41,22.86-3.8,36.27-10.08a27.29,27.29,0,0,1,11.27-2.23,34.4,34.4,0,0,1,13,2.48l.23.09c10.85,3.85,18,11.45,18.11,19.4.14,7.48-5.57,18.73-33.6,29.8-2.9,1.15-6.61,2.33-10.55,3.57-16,5.09-40.19,12.76-47.6,30.23-4.05,9.53-2.75,21.15,3.86,34.56.06.13.12.25.17.39,2,4.68,50.42,115.07,158.5,132.88a7.93,7.93,0,0,1,6.62,8.26,13.48,13.48,0,0,1-1.1,4.52c-4.46,10.42-24.56,25.21-94.86,36.07-5.75.88-8,8.37-11.4,24.06-1.25,5.71-2.51,11.32-4.24,17.22-1.5,5.12-4.69,7.52-10.06,7.52H750a88,88,0,0,1-15.74-2A209.7,209.7,0,0,0,692,779.8a188.23,188.23,0,0,0-30.49,2.57c-21.09,3.52-39,16.16-58,29.56C576,831.42,547.57,851.52,503.25,851.52Z"/><path class="cls-5" d="M505.91,157.39c28.77,0,127.85,7.73,174.55,112.41,15.37,34.47,11.44,96.91,8.27,147.08-.5,8-1,15.67-1.38,23l-.17,3.17,2.12,2.35c.84.95,8.84,9.3,26.61,10h.59c11.75-.44,25-4.08,39.38-10.82a19,19,0,0,1,7.9-1.48,26.39,26.39,0,0,1,10,1.9l.45.18c7.53,2.63,12.86,7.62,12.95,12.12.05,2.56-1.87,11.73-28.59,22.28-2.61,1-6.05,2.13-10,3.39-17.39,5.53-43.66,13.85-52.5,34.68-5,11.75-3.63,25.6,4,41.16,3.16,7.37,52.79,119.18,164.49,137.59a5.25,5.25,0,0,1-.46,1.79c-1.9,4.46-13.93,19.85-88.8,31.41-11.72,1.81-14.6,14.93-17.93,30.2-1.19,5.46-2.42,11-4.1,16.68-.51,1.73-.61,1.83-2.46,1.83H750a82.54,82.54,0,0,1-14.22-1.84A219.4,219.4,0,0,0,692,771.88a195.58,195.58,0,0,0-31.77,2.68c-22.91,3.82-41.56,17-61.3,30.94-26.49,18.74-53.89,38.11-95.68,38.11-1.82,0-3.61-.06-5.39-.15l-.47,0-.48,0c-1,.09-2.06.13-3.12.13-41.79,0-69.19-19.37-95.68-38.1-19.74-14-38.38-27.13-61.29-31a195.58,195.58,0,0,0-31.77-2.68c-18.57,0-33.13,2.84-43.75,4.91-5.84,1.15-10.89,2.13-14.21,2.13-2.71,0-2.76-.16-3.33-2.11-1.68-5.71-2.91-11.37-4.1-16.82-3.34-15.28-6.22-28.48-17.93-30.29-74.88-11.56-86.9-27-88.81-31.44a5.29,5.29,0,0,1-.45-1.82C244.17,678,293.79,566.24,297,558.85c7.67-15.57,9-29.41,4.05-41.16-8.84-20.83-35.11-29.16-52.5-34.69-4-1.26-7.43-2.35-10-3.39C215.88,470.7,209,461.72,210,456.27c1.19-6.27,12.07-12.66,21.56-12.66a12.93,12.93,0,0,1,5.39,1c15.42,7.21,29.51,10.89,41.84,10.89,19.42,0,28.07-9,29-10.06l2.11-2.35-.17-3.16c-.4-7.36-.88-15.07-1.39-23-3.16-50.17-7.09-112.57,8.29-147,46.51-104.3,145.11-112.34,174.22-112.34l13.37-.13h1.72m0-15.83H504l-13.21.12c-31.51,0-138.29,8.78-188.67,121.73-16.95,38-12.89,102.54-9.63,154.4.39,6.11.79,12.46,1.14,18.6-2.6,1.44-7.36,3.24-14.86,3.24-10,0-21.82-3.16-35.12-9.4a28.42,28.42,0,0,0-12.11-2.48c-15.58,0-34.22,10.25-37.12,25.53-2.09,11,2.83,27.06,38.21,41,3.19,1.27,7,2.48,11.08,3.76,14.61,4.64,36.7,11.65,42.7,25.77,3.1,7.32,1.86,16.74-3.68,28-.12.25-.24.5-.35.77-1.94,4.52-48.7,111.1-152.5,128.19a15.86,15.86,0,0,0-13.24,16.51,21.51,21.51,0,0,0,1.69,7.12C126.13,722.65,159,736,218.83,745.28c2,2.71,4.08,12.26,5.35,18.08s2.54,11.67,4.38,17.92,6.49,13.48,18.53,13.48c4.87,0,10.61-1.12,17.25-2.42,10-2,23.62-4.62,40.71-4.62a180.18,180.18,0,0,1,29.19,2.46C353.55,793.4,370,805,389,818.43c27.2,19.23,58,41,104.84,41,1.29,0,2.58,0,3.86-.13,1.52.06,3.5.13,5.6.13,46.84,0,77.64-21.78,104.83-41,19-13.44,35.43-25,54.74-28.25A180,180,0,0,1,692,787.72,203.53,203.53,0,0,1,732.71,792,95.69,95.69,0,0,0,750,794.17h.87c8.89,0,15.17-4.7,17.66-13.23,1.8-6.12,3.1-11.89,4.38-17.73s3.34-15.32,5.33-18c59.85-9.29,92.71-22.61,100.48-40.75a21.12,21.12,0,0,0,1.71-7.15,15.84,15.84,0,0,0-13.23-16.51C763.31,663.69,716.59,557.13,714.65,552.61c-.11-.26-.22-.52-.35-.77-5.55-11.24-6.77-20.65-3.67-28,6-14.12,28.07-21.13,42.69-25.76,4.08-1.3,7.93-2.52,11.09-3.77C790.3,484.12,803.28,471.56,803,457c-.23-11.42-9.12-21.61-23.26-26.66h0a42.5,42.5,0,0,0-15.93-3.05,35.2,35.2,0,0,0-14.62,3c-12.31,5.77-23.38,8.91-32.92,9.34a29.34,29.34,0,0,1-12.83-3.19c.3-5.27.64-10.68,1-16.34l.14-2.2c3.27-51.9,7.33-116.49-9.62-154.52-50.4-113-157.41-121.79-189-121.79Z"/></g></g></svg>