<svg xmlns="http://www.w3.org/2000/svg" width="2048" height="2048" viewBox="0 0 2048 2048"><title>Zeichenfläche 1</title><g id="Ebene_1" data-name="Ebene 1"><rect width="2048" height="2048" rx="310" ry="310" style="fill:#fff"/></g><g id="Ebene_2" data-name="Ebene 2"><g id="Layer_1"><path d="M1688,565.91a197.19,197.19,0,0,0-110.92-50.3c-91.45-10.24-183.72-15.39-276.3-18-92-2.57-184.37-2.57-276.55-2.52s-184.54-.05-276.54,2.52c-92.59,2.58-184.9,7.73-276.4,18a196.86,196.86,0,0,0-110.83,50.33,205.73,205.73,0,0,0-62,106.53c-13.09,56.72-19.71,115.9-23.05,175.44-3.36,59.8-3.44,118.84-3.44,176.16s0,116.2,3.28,176c3.26,59.52,9.8,118.69,22.89,175.42a206.25,206.25,0,0,0,62.07,106.56A196.67,196.67,0,0,0,471,1532.4c91.51,10.23,183.81,15.38,276.4,18,92,2.56,184.38,2.56,276.55,2.51s184.6,0,276.58-2.51c92.58-2.59,184.86-7.74,276.36-18a196.84,196.84,0,0,0,110.76-50.29,206.74,206.74,0,0,0,62.18-106.58c13-56.73,19.57-115.9,22.85-175.42,3.23-58.69,3.26-118.24,3.25-176h.06v-2.9h-.06c0-114.85,0-236.49-25.78-348.7A206.15,206.15,0,0,0,1688,565.91Z" style="fill:#e42b26"/><path d="M1309.36,995.76q-128.53-67.12-255.8-133.52-106-55.31-212.07-110.68l-23.37-12.2V1278.7l23.31-12.08q117.3-60.76,233.93-121.23l233.94-121.32,27.23-14.12-27.17-14.19Z" style="fill:#fffffe"/></g></g></svg>